<svg xmlns:xlink="http://www.w3.org/1999/xlink" xmlns="http://www.w3.org/2000/svg" width="28" height="20" viewBox="0 0 28 20" fill="none"><path fill-rule="evenodd" clip-rule="evenodd" d="M14 1C14 0.447715 14.4477 0 15 0H26C27.1046 0 28 0.895431 28 2V18C28 19.1046 27.1046 20 26 20H15C14.4477 20 14 19.5523 14 19V1ZM3 11.75C3 11.3358 3.33579 11 3.75 11H8.25C8.66421 11 9 11.3358 9 11.75C9 12.1642 8.66421 12.5 8.25 12.5H3.75C3.33579 12.5 3 12.1642 3 11.75ZM3.75 8C3.33579 8 3 8.33579 3 8.75C3 9.16421 3.33579 9.5 3.75 9.5H10.25C10.6642 9.5 11 9.16421 11 8.75C11 8.33579 10.6642 8 10.25 8H3.75Z" fill="currentColor"></path></svg>