<?xml version="1.0" encoding="UTF-8" standalone="no"?>
<svg
   viewBox="0 0 20 20"
   fill="currentColor"
   aria-hidden="true"
   data-slot="icon"
   class="h-4 w-4"
   width="16"
   height="16"
   version="1.1"
   id="svg4"
   sodipodi:docname="setting.svg"
   inkscape:version="1.2.2 (b0a8486541, 2022-12-01)"
   xmlns:inkscape="http://www.inkscape.org/namespaces/inkscape"
   xmlns:sodipodi="http://sodipodi.sourceforge.net/DTD/sodipodi-0.dtd"
   xmlns="http://www.w3.org/2000/svg"
   xmlns:svg="http://www.w3.org/2000/svg">
  <defs
     id="defs8" />
  <sodipodi:namedview
     id="namedview6"
     pagecolor="#ffffff"
     bordercolor="#666666"
     borderopacity="1.0"
     inkscape:showpageshadow="2"
     inkscape:pageopacity="0.0"
     inkscape:pagecheckerboard="0"
     inkscape:deskcolor="#d1d1d1"
     showgrid="false"
     inkscape:zoom="34.48"
     inkscape:cx="10.107309"
     inkscape:cy="10.107309"
     inkscape:window-width="1920"
     inkscape:window-height="1022"
     inkscape:window-x="0"
     inkscape:window-y="26"
     inkscape:window-maximized="1"
     inkscape:current-layer="svg4" />
  <path
     fill-rule="evenodd"
     d="M7.84 1.804A1 1 0 0 1 8.82 1h2.36a1 1 0 0 1 .98.804l.331 1.652a6.993 6.993 0 0 1 1.929 1.115l1.598-.54a1 1 0 0 1 1.186.447l1.18 2.044a1 1 0 0 1-.205 1.251l-1.267 1.113a7.047 7.047 0 0 1 0 2.228l1.267 1.113a1 1 0 0 1 .206 1.25l-1.18 2.045a1 1 0 0 1-1.187.447l-1.598-.54a6.993 6.993 0 0 1-1.929 1.115l-.33 1.652a1 1 0 0 1-.98.804H8.82a1 1 0 0 1-.98-.804l-.331-1.652a6.993 6.993 0 0 1-1.929-1.115l-1.598.54a1 1 0 0 1-1.186-.447l-1.18-2.044a1 1 0 0 1 .205-1.251l1.267-1.114a7.05 7.05 0 0 1 0-2.227L1.821 7.773a1 1 0 0 1-.206-1.25l1.18-2.045a1 1 0 0 1 1.187-.447l1.598.54A6.992 6.992 0 0 1 7.51 3.456l.33-1.652ZM10 13a3 3 0 1 0 0-6 3 3 0 0 0 0 6Z"
     clip-rule="evenodd"
     id="path2" />
</svg>
