<?xml version="1.0" encoding="UTF-8" standalone="no"?>
<svg
   viewBox="0 0 16 16"
   fill="currentColor"
   aria-hidden="true"
   data-slot="icon"
   class="w-3 h-3 text-zinc-500"
   width="16"
   height="16"
   version="1.1"
   id="svg174"
   sodipodi:docname="steps.svg"
   inkscape:version="1.2.2 (b0a8486541, 2022-12-01)"
   xmlns:inkscape="http://www.inkscape.org/namespaces/inkscape"
   xmlns:sodipodi="http://sodipodi.sourceforge.net/DTD/sodipodi-0.dtd"
   xmlns="http://www.w3.org/2000/svg"
   xmlns:svg="http://www.w3.org/2000/svg">
  <defs
     id="defs178" />
  <sodipodi:namedview
     id="namedview176"
     pagecolor="#ffffff"
     bordercolor="#666666"
     borderopacity="1.0"
     inkscape:showpageshadow="2"
     inkscape:pageopacity="0.0"
     inkscape:pagecheckerboard="0"
     inkscape:deskcolor="#d1d1d1"
     showgrid="false"
     inkscape:zoom="40.213722"
     inkscape:cx="8.094252"
     inkscape:cy="8.094252"
     inkscape:window-width="1920"
     inkscape:window-height="1022"
     inkscape:window-x="0"
     inkscape:window-y="26"
     inkscape:window-maximized="1"
     inkscape:current-layer="svg174" />
  <path
     d="M2 4a2 2 0 0 1 2-2h8a2 2 0 1 1 0 4H4a2 2 0 0 1-2-2ZM2 9.25a.75.75 0 0 1 .75-.75h10.5a.75.75 0 0 1 0 1.5H2.75A.75.75 0 0 1 2 9.25ZM2.75 12.5a.75.75 0 0 0 0 1.5h10.5a.75.75 0 0 0 0-1.5H2.75Z"
     fill="#000000"
     id="path172" />
</svg>
